<svg id="Livello_1" data-name="Livello 1" xmlns="http://www.w3.org/2000/svg" viewBox="0 0 243.7 251.98"><defs><style>.cls-1{fill:#fff;}</style></defs><path class="cls-1" d="M952,526.44q-1.23-2-2.43-4c-2-3.29-3.89-6.39-5.73-9.57q-5.1-8.83-10.17-17.7-4.9-8.6-9.85-17.16-9.68-16.75-19.39-33.48l-16.38-28.27c-6.87-11.87-14-24.3-21.87-38-6.64-11.57-12.1-21.17-17.19-30.21a6.94,6.94,0,0,1-.86-3.17c-.06-9.3,0-19.26.44-29.37l103.5,179.17L1055.8,314.47V321c0,8,0,16.32,0,24.48a6.72,6.72,0,0,1-1.07,3.12q-8.67,15.06-17.39,30.08l-14.61,25.22Q1009,427.47,995.36,451.1q-7.61,13.18-15.16,26.4l-11.51,20.09q-7.47,13.05-15,26.08c-.38.66-.8,1.31-1.3,2.09C952.29,526,952.15,526.2,952,526.44Z" transform="translate(-812.61 -311.34)"/><path class="cls-1" d="M1055.3,316.34V321c0,8,0,16.27,0,24.41a6.26,6.26,0,0,1-1,2.88c-5.74,10-11.61,20.09-17.28,29.87L1029.58,391l-6.71,11.57c-9.16,15.83-18.64,32.2-27.94,48.32-5.09,8.81-10.23,17.79-15.2,26.47q-3.39,5.94-6.79,11.86l-4.29,7.48Q961,510,953.29,523.42c-.37.65-.77,1.28-1.28,2.07h0l-2-3.29c-2-3.29-3.89-6.39-5.73-9.57-3.4-5.89-6.84-11.89-10.16-17.7-3.22-5.63-6.55-11.45-9.85-17.16q-9.69-16.77-19.41-33.5-8.19-14.11-16.37-28.25c-6.86-11.87-14-24.29-21.87-38-6.64-11.58-12.1-21.18-17.18-30.2a6.35,6.35,0,0,1-.8-2.93c-.06-8.77,0-18.13.36-27.64l43.92,76L951.2,494.21l.87,1.5.86-1.51L1055.3,316.34m.34-2.59c-34.41,59.79-68.83,119.58-103.57,180L848.16,313.82c-.57,10.54-.6,20.82-.53,31.09a7.36,7.36,0,0,0,.93,3.42q8.52,15.14,17.19,30.21,10.9,19,21.87,38,17.86,30.89,35.77,61.75c6.71,11.6,13.31,23.26,20,34.86,2.7,4.67,5.55,9.25,8.58,14.26.92-1.47,1.58-2.45,2.17-3.47q9.84-17.11,19.64-34.24,11-19.17,22-38.33,17.3-30,34.65-59.89,12.35-21.33,24.68-42.65a7.35,7.35,0,0,0,1.13-3.36c.09-10.51,0-21,0-31.52l-.66-.18Z" transform="translate(-812.61 -311.34)"/><path class="cls-1" d="M813.12,562.71V366.47l6.79,0c2.11,0,4.89,0,7.69.1.37,0,1.23.9,1.43,1.57a7.38,7.38,0,0,1,.13,2.38c0,.37,0,.73,0,1.09V540c0,5.87.23,6.1,6.26,6.1.92,0,1.81,0,2.7,0l2.65,0c1.28,0,2.34,0,3.33.08l.48,0a3.31,3.31,0,0,0,2.48-.82,4,4,0,0,0,.87-3.08c-.08-7.31-.06-14.75,0-22,0-2.72,0-5.44,0-8.16V384.61l1.56,2.57c1.29,2.13,2.63,4.34,3.9,6.53l.33.57c3.05,5.25,6.21,10.68,9.17,16.09a10.15,10.15,0,0,1,1.39,4.47c.06,44.78.06,90.32,0,134.35v11.88c0,.38,0,.76-.07,1.23l0,.41Z" transform="translate(-812.61 -311.34)"/><path class="cls-1" d="M819.91,367c2.1,0,4.85,0,7.64.1a2.52,2.52,0,0,1,1,1.22,6.83,6.83,0,0,1,.11,2.21c0,.37,0,.74,0,1.11V540c0,6.16.44,6.6,6.79,6.6l2.67,0,2.65,0c1.27,0,2.32,0,3.3.08h.51a3.79,3.79,0,0,0,2.84-1,4.69,4.69,0,0,0,1-3.43c-.08-7.33-.06-14.78,0-22,0-2.71,0-5.42,0-8.13V386.4l.62,1c1.3,2.13,2.64,4.34,3.91,6.53l.35.6c3,5.24,6.19,10.65,9.14,16.05a9.54,9.54,0,0,1,1.33,4.23c.06,44.68.06,90.11,0,134v12.19c0,.34,0,.7-.06,1.14H813.62V367h6.29m0-1-7.29,0V563.21h52c.06-.94.13-1.54.13-2.14q0-73.11,0-146.23a10.48,10.48,0,0,0-1.45-4.71c-3.07-5.61-6.29-11.14-9.5-16.67-1.86-3.19-3.8-6.33-5.7-9.49l-.7.21V512.1c0,10-.07,20.08,0,30.12,0,2.34-.65,3.38-2.85,3.38h-.45c-1.12-.06-2.24-.08-3.36-.08-1.77,0-3.55,0-5.32,0h0c-5.76,0-5.76,0-5.76-5.6V371.59a13.12,13.12,0,0,0-.11-3.61c-.23-.79-1.21-1.9-1.89-1.93-2.56-.08-5.12-.1-7.71-.1Z" transform="translate(-812.61 -311.34)"/><path class="cls-1" d="M1039.88,562.82l-.06-.75c-.06-.82-.11-1.59-.12-2.36q0-72,0-144v-.21a7.29,7.29,0,0,1,.49-3.4c4.11-7.23,9.53-16.63,15.61-26V562.82Z" transform="translate(-812.61 -311.34)"/><path class="cls-1" d="M1055.27,387.84V562.32h-14.93c0-.1,0-.2,0-.3-.06-.8-.12-1.56-.12-2.31,0-42.68,0-93.17,0-144v-.2a6.94,6.94,0,0,1,.43-3.16c3.89-6.86,9-15.67,14.67-24.54m1-3.38c-5.94,9.05-11.31,18.2-16.54,27.43a8.16,8.16,0,0,0-.56,3.85q0,72,0,144c0,1.16.13,2.32.21,3.61h16.86V384.46Z" transform="translate(-812.61 -311.34)"/><path class="cls-1" d="M815.39,346.49a2.32,2.32,0,0,1-1.73-.52,2.76,2.76,0,0,1-.52-2.06c.06-3.58.05-7.22,0-10.74,0-1.37,0-2.73,0-4.1s0-2.9,0-4.34c0-3.33.05-6.77-.07-10.15a3,3,0,0,1,.52-2.2,2.55,2.55,0,0,1,1.91-.54H816c1.55.07,3.19.11,5,.11s3.87,0,5.5-.08h.16a2.22,2.22,0,0,1,1.59.45,2.56,2.56,0,0,1,.48,1.83c-.06,9.66-.07,19.77,0,30a2.45,2.45,0,0,1-.5,1.78,2.41,2.41,0,0,1-1.74.5c-1.89,0-3.71,0-5.52,0s-3.62,0-5.43.05Z" transform="translate(-812.61 -311.34)"/><path class="cls-1" d="M815.54,312.34H816c1.55.07,3.21.11,5,.11s3.89,0,5.51-.08h.15a1.8,1.8,0,0,1,1.23.3,2.18,2.18,0,0,1,.34,1.47c-.06,9.66-.07,19.76,0,30.05a1.41,1.41,0,0,1-1.74,1.77h-.07c-1.81,0-3.63,0-5.44,0-2,0-3.76,0-5.45.06h-.12a1.92,1.92,0,0,1-1.37-.37,2.42,2.42,0,0,1-.38-1.7c.06-3.58.05-7.22,0-10.74,0-1.37,0-2.74,0-4.11s0-2.89,0-4.33c0-3.33.05-6.78-.07-10.17a2.67,2.67,0,0,1,.38-1.84,2.19,2.19,0,0,1,1.55-.39m0-1c-2.14,0-3,.83-2.93,3.26.16,4.82,0,9.65,0,14.47s.07,9.89,0,14.83c0,2.08.65,3.09,2.75,3.09h.14c1.81,0,3.62-.05,5.43-.05s3.62,0,5.43,0h.08c1.88,0,2.75-.76,2.74-2.78q-.08-15,0-30c0-2-.67-2.78-2.57-2.78h-.17c-1.83,0-3.66.08-5.49.08-1.67,0-3.34,0-5-.11Z" transform="translate(-812.61 -311.34)"/></svg>